<svg width="32" height="32" viewBox="0 0 32 32" fill="none" xmlns="http://www.w3.org/2000/svg">
<path d="M19.9998 22.6667H22.6665V20.0001H25.3332V17.3334H22.6665V14.6667H19.9998V17.3334H17.3332V20.0001H19.9998V22.6667ZM9.33317 20.0001H13.3332V17.3334H9.33317V20.0001ZM9.33317 16.0001H18.6665V13.3334H9.33317V16.0001ZM9.33317 12.0001H18.6665V9.33341H9.33317V12.0001ZM15.9998 29.3334C14.1554 29.3334 12.4221 28.9834 10.7998 28.2834C9.17761 27.5834 7.7665 26.6334 6.5665 25.4334C5.3665 24.2334 4.4165 22.8223 3.7165 21.2001C3.0165 19.5779 2.6665 17.8445 2.6665 16.0001C2.6665 14.1556 3.0165 12.4223 3.7165 10.8001C4.4165 9.17786 5.3665 7.76675 6.5665 6.56675C7.7665 5.36675 9.17761 4.41675 10.7998 3.71675C12.4221 3.01675 14.1554 2.66675 15.9998 2.66675C17.8443 2.66675 19.5776 3.01675 21.1998 3.71675C22.8221 4.41675 24.2332 5.36675 25.4332 6.56675C26.6332 7.76675 27.5832 9.17786 28.2832 10.8001C28.9832 12.4223 29.3332 14.1556 29.3332 16.0001C29.3332 17.8445 28.9832 19.5779 28.2832 21.2001C27.5832 22.8223 26.6332 24.2334 25.4332 25.4334C24.2332 26.6334 22.8221 27.5834 21.1998 28.2834C19.5776 28.9834 17.8443 29.3334 15.9998 29.3334ZM15.9998 26.6667C18.9776 26.6667 21.4998 25.6334 23.5665 23.5667C25.6332 21.5001 26.6665 18.9779 26.6665 16.0001C26.6665 13.0223 25.6332 10.5001 23.5665 8.43341C21.4998 6.36675 18.9776 5.33341 15.9998 5.33341C13.0221 5.33341 10.4998 6.36675 8.43317 8.43341C6.3665 10.5001 5.33317 13.0223 5.33317 16.0001C5.33317 18.9779 6.3665 21.5001 8.43317 23.5667C10.4998 25.6334 13.0221 26.6667 15.9998 26.6667Z" fill="url(#paint0_linear_688_2068)"/>
<defs>
<linearGradient id="paint0_linear_688_2068" x1="3.81154" y1="24.0557" x2="29.3385" y2="24.0388" gradientUnits="userSpaceOnUse">
<stop offset="0.271875" stop-color="#3EAD3A"/>
<stop offset="1" stop-color="#017AAF"/>
</linearGradient>
</defs>
</svg>
