<svg width="40" height="40" viewBox="0 0 40 40" fill="none" xmlns="http://www.w3.org/2000/svg">
<path fill-rule="evenodd" clip-rule="evenodd" d="M17.3972 3C16.2926 3 15.3972 3.89543 15.3972 5V6.73929C15.3972 7.25721 15.5941 7.72914 15.917 8.08435C15.8242 8.29942 15.7235 8.4826 15.6321 8.59121C15.5279 8.71508 15.4047 8.87272 15.3054 8.99976L15.3053 8.99979L15.3053 8.99983C15.2533 9.06633 15.2079 9.12445 15.1752 9.16495C15.0486 9.3216 14.9554 9.421 14.865 9.49422C14.7308 9.60286 14.5153 9.73071 13.9505 9.73071H13.9439H13.9372H13.9306H13.924H13.9173H13.9107H13.9041H13.8976H13.891H13.8844H13.8778H13.8713H13.8647H13.8582H13.8517H13.8452H13.8386H13.8321H13.8256H13.8191H13.8127H13.8062H13.7997H13.7933H13.7868H13.7804H13.774H13.7675H13.7611H13.7547H13.7483H13.7419H13.7355H13.7291H13.7228H13.7164H13.7101H13.7037H13.6974H13.691H13.6847H13.6784H13.6721H13.6658H13.6595H13.6532H13.6469H13.6407H13.6344H13.6281H13.6219H13.6157H13.6094H13.6032H13.597H13.5908H13.5846H13.5784H13.5722H13.566H13.5598H13.5536H13.5475H13.5413H13.5352H13.529H13.5229H13.5168H13.5106H13.5045H13.4984H13.4923H13.4862H13.4801H13.4741H13.468H13.4619H13.4559H13.4498H13.4438H13.4377H13.4317H13.4257H13.4196H13.4136H13.4076H13.4016H13.3956H13.3896H13.3837H13.3777H13.3717H13.3657H13.3598H13.3538H13.3479H13.342H13.336H13.3301H13.3242H13.3183H13.3124H13.3065H13.3006H13.2947H13.2888H13.2829H13.277H13.2712H13.2653H13.2595H13.2536H13.2478H13.2419H13.2361H13.2303H13.2245H13.2186H13.2128H13.207H13.2012H13.1954H13.1897H13.1839H13.1781H13.1723H13.1666H13.1608H13.1551H13.1493H13.1436H13.1378H13.1321H13.1264H13.1206H13.1149H13.1092H13.1035H13.0978H13.0921H13.0864H13.0807H13.0751H13.0694H13.0637H13.058H13.0524H13.0467H13.0411H13.0354H13.0298H13.0241H13.0185H13.0129H13.0073H13.0016H12.996H12.9904H12.9848H12.9792H12.9736H12.968H12.9624H12.9569H12.9513H12.9457H12.9401H12.9346H12.929H12.9235H12.9179H12.9124H12.9068H12.9013H12.8958H12.8902H12.8847H12.8792H12.8737H12.8681H12.8626H12.8571H12.8516H12.8461H12.8406H12.8351H12.8297H12.8242H12.8187H12.8132H12.8078H12.8023H12.7968H12.7914H12.7859H12.7805H12.775H12.7696H12.7641H12.7587H12.7533H12.7478H12.7424H12.737H12.7316H12.7261H12.7207H12.7153H12.7099H12.7045H12.6991H12.6937H12.6883H12.6829H12.6775H12.6721H12.6668H12.6614H12.656H12.6506H12.6453H12.6399H12.6345H12.6292H12.6238H12.6185H12.6131H12.6078H12.6024H12.5971H12.5917H12.5864H12.5811H12.5757H12.5704H12.5651H12.5598H12.5544H12.5491H12.5438H12.5385H12.5332H12.5279H12.5226H12.5173H12.512H12.5067H12.5014H12.4961H12.4908H12.4855H12.4802H12.4749H12.4696H12.4644H12.4591H12.4538H12.4485H12.4433H12.438H12.4327H12.4274H12.4222H12.4169H12.4117H12.4064H12.4011H12.3959H12.3906H12.3854H12.3801H12.3749H12.3696H12.3644H12.3591H12.3539H12.3487H12.3434H12.3382H12.333H12.3277H12.3225H12.3173H12.312H12.3068H12.3016H12.2963H12.2911H12.2859H12.2807H12.2755H12.2702H12.265H12.2598H12.2546H12.2494H12.2442H12.2389H12.2337H12.2285H12.2233H12.2181H12.2129H12.2077H12.2025H12.1973H12.1921H12.1869H12.1817H12.1765H12.1713H12.1661H12.1609H12.1557H12.1505H12.1453H12.1401H12.1349H12.1297H12.1245H12.1193H12.1141H12.1089H12.1037H12.0985H12.0933H12.0881H12.0829H12.0777H12.0726H12.0674H12.0622H12.057H12.0518H12.0466H12.0414H12.0362H12.031H12.0258H12.0206H12.0154H12.0103H12.0051H11.9999H11.9947H11.9895H11.9843H11.9791H11.9739H11.9687H11.9635H11.9583H11.9531H11.9479H11.9428H11.9376H11.9324H11.9272H11.922H11.9168H11.9116H11.9064H11.9012H11.896H11.8908H11.8856H11.8804H11.8752H11.87H11.8648H11.8596H11.8544H11.8492H11.844H11.8387H11.8335H11.8283H11.8231H11.8179H11.8127H11.8075H11.8023H11.7971H11.7918H11.7866H11.7814H11.7762H11.771H11.7657H11.7605H11.7553H11.7501H11.7448H11.7396H11.7344H11.7291H11.7239H11.7187H11.7134H11.7082H11.703H11.6977H11.6925H11.6872H11.682H11.6767H11.6715H11.6662H11.661H11.6557H11.6505H11.6452H11.6399H11.6347H11.6294H11.6242H11.6189H11.6136H11.6083H11.6031H11.5978H11.5925H11.5872H11.5819H11.5767H11.5714H11.5661H11.5608H11.5555H11.5502H11.5449H11.5396H11.5343H11.529H11.5237H11.5184H11.5131H11.5077H11.5024H11.4971H11.4918H11.4865H11.4811H11.4758H11.4705H11.4651H11.4598H11.4544H11.4491H11.4438H11.4384H11.433H11.4277H11.4223H11.417H11.4116H11.4062H11.4009H11.3955H11.3901H11.3847H11.3793H11.374H11.3686H11.3632H11.3578H11.3524H11.347H11.3416H11.3362H11.3308H11.3253H11.3199H11.3145H11.3091H11.3036H11.2982H11.2928H11.2873H11.2819H11.2764H11.271H11.2655H11.2601H11.2546H11.2491H11.2437H11.2382H11.2327H11.2272H11.2218H11.2163H11.2108H11.2053H11.1998H11.1943H11.1888H11.1832H11.1777H11.1722H11.1667H11.1612H11.1556H11.1501H11.1445H11.139H11.1334H11.1279H11.1223H11.1168H11.1112H11.1056C10.0013 9.73071 9.10547 10.6259 9.10547 11.7307V34.9115H9.4064V35.6622H28.9811V35.4215H29.991V12.1977C29.991 10.95 28.8911 10.0664 27.7417 10.1575C26.9224 10.2225 25.9986 10.2261 25.4262 10.059C24.4119 9.76276 23.9644 9.46391 23.4664 8.86811C23.3525 8.73184 23.225 8.48088 23.1162 8.19693C23.1109 8.18315 23.1058 8.16951 23.1007 8.15604C23.4642 7.79392 23.6891 7.29287 23.6891 6.73929V5C23.6891 3.89543 22.7936 3 21.6891 3H17.3972ZM21.1848 8.73929H17.8108C17.6777 9.06941 17.4656 9.51851 17.1625 9.87877C17.0693 9.98963 17.0041 10.0737 16.9308 10.1683L16.9308 10.1683L16.9308 10.1683C16.8744 10.241 16.8133 10.3198 16.7309 10.4218C16.5726 10.6178 16.376 10.8442 16.1234 11.0487C15.5714 11.4955 14.8872 11.7307 13.9505 11.7307H13.9439H13.9372H13.9306H13.924H13.9173H13.9107H13.9041H13.8976H13.891H13.8844H13.8778H13.8713H13.8647H13.8582H13.8517H13.8452H13.8386H13.8321H13.8256H13.8191H13.8127H13.8062H13.7997H13.7933H13.7868H13.7804H13.774H13.7675H13.7611H13.7547H13.7483H13.7419H13.7355H13.7291H13.7228H13.7164H13.7101H13.7037H13.6974H13.691H13.6847H13.6784H13.6721H13.6658H13.6595H13.6532H13.6469H13.6407H13.6344H13.6281H13.6219H13.6157H13.6094H13.6032H13.597H13.5908H13.5846H13.5784H13.5722H13.566H13.5598H13.5536H13.5475H13.5413H13.5352H13.529H13.5229H13.5168H13.5106H13.5045H13.4984H13.4923H13.4862H13.4801H13.4741H13.468H13.4619H13.4559H13.4498H13.4438H13.4377H13.4317H13.4257H13.4196H13.4136H13.4076H13.4016H13.3956H13.3896H13.3837H13.3777H13.3717H13.3657H13.3598H13.3538H13.3479H13.342H13.336H13.3301H13.3242H13.3183H13.3124H13.3065H13.3006H13.2947H13.2888H13.2829H13.277H13.2712H13.2653H13.2595H13.2536H13.2478H13.2419H13.2361H13.2303H13.2245H13.2186H13.2128H13.207H13.2012H13.1954H13.1897H13.1839H13.1781H13.1723H13.1666H13.1608H13.1551H13.1493H13.1436H13.1378H13.1321H13.1264H13.1206H13.1149H13.1092H13.1035H13.0978H13.0921H13.0864H13.0807H13.0751H13.0694H13.0637H13.058H13.0524H13.0467H13.0411H13.0354H13.0298H13.0241H13.0185H13.0129H13.0073H13.0016H12.996H12.9904H12.9848H12.9792H12.9736H12.968H12.9624H12.9569H12.9513H12.9457H12.9401H12.9346H12.929H12.9235H12.9179H12.9124H12.9068H12.9013H12.8958H12.8902H12.8847H12.8792H12.8737H12.8681H12.8626H12.8571H12.8516H12.8461H12.8406H12.8351H12.8297H12.8242H12.8187H12.8132H12.8078H12.8023H12.7968H12.7914H12.7859H12.7805H12.775H12.7696H12.7641H12.7587H12.7533H12.7478H12.7424H12.737H12.7316H12.7261H12.7207H12.7153H12.7099H12.7045H12.6991H12.6937H12.6883H12.6829H12.6775H12.6721H12.6668H12.6614H12.656H12.6506H12.6453H12.6399H12.6345H12.6292H12.6238H12.6185H12.6131H12.6078H12.6024H12.5971H12.5917H12.5864H12.5811H12.5757H12.5704H12.5651H12.5598H12.5544H12.5491H12.5438H12.5385H12.5332H12.5279H12.5226H12.5173H12.512H12.5067H12.5014H12.4961H12.4908H12.4855H12.4802H12.4749H12.4696H12.4644H12.4591H12.4538H12.4485H12.4433H12.438H12.4327H12.4274H12.4222H12.4169H12.4117H12.4064H12.4011H12.3959H12.3906H12.3854H12.3801H12.3749H12.3696H12.3644H12.3591H12.3539H12.3487H12.3434H12.3382H12.333H12.3277H12.3225H12.3173H12.312H12.3068H12.3016H12.2963H12.2911H12.2859H12.2807H12.2755H12.2702H12.265H12.2598H12.2546H12.2494H12.2442H12.2389H12.2337H12.2285H12.2233H12.2181H12.2129H12.2077H12.2025H12.1973H12.1921H12.1869H12.1817H12.1765H12.1713H12.1661H12.1609H12.1557H12.1505H12.1453H12.1401H12.1349H12.1297H12.1245H12.1193H12.1141H12.1089H12.1037H12.0985H12.0933H12.0881H12.0829H12.0777H12.0726H12.0674H12.0622H12.057H12.0518H12.0466H12.0414H12.0362H12.031H12.0258H12.0206H12.0154H12.0103H12.0051H11.9999H11.9947H11.9895H11.9843H11.9791H11.9739H11.9687H11.9635H11.9583H11.9531H11.9479H11.9428H11.9376H11.9324H11.9272H11.922H11.9168H11.9116H11.9064H11.9012H11.896H11.8908H11.8856H11.8804H11.8752H11.87H11.8648H11.8596H11.8544H11.8492H11.844H11.8387H11.8335H11.8283H11.8231H11.8179H11.8127H11.8075H11.8023H11.7971H11.7918H11.7866H11.7814H11.7762H11.771H11.7657H11.7605H11.7553H11.7501H11.7448H11.7396H11.7344H11.7291H11.7239H11.7187H11.7134H11.7082H11.703H11.6977H11.6925H11.6872H11.682H11.6767H11.6715H11.6662H11.661H11.6557H11.6505H11.6452H11.6399H11.6347H11.6294H11.6242H11.6189H11.6136H11.6083H11.6031H11.5978H11.5925H11.5872H11.5819H11.5767H11.5714H11.5661H11.5608H11.5555H11.5502H11.5449H11.5396H11.5343H11.529H11.5237H11.5184H11.5131H11.5077H11.5024H11.4971H11.4918H11.4865H11.4811H11.4758H11.4705H11.4651H11.4598H11.4544H11.4491H11.4438H11.4384H11.433H11.4277H11.4223H11.417H11.4116H11.4062H11.4009H11.3955H11.3901H11.3847H11.3793H11.374H11.3686H11.3632H11.3578H11.3524H11.347H11.3416H11.3362H11.3308H11.3253H11.3199H11.3145H11.3091H11.3036H11.2982H11.2928H11.2873H11.2819H11.2764H11.271H11.2655H11.2601H11.2546H11.2491H11.2437H11.2382H11.2327H11.2272H11.2218H11.2163H11.2108H11.2053H11.1998H11.1943H11.1888H11.1832H11.1777H11.1722H11.1667H11.1612H11.1556H11.1501H11.1445H11.139H11.1334H11.1279H11.1223H11.1168H11.1112H11.1056H11.1055V33.6622H27.991V12.1977C27.991 12.1964 27.9909 12.1958 27.9908 12.1954C27.9908 12.195 27.9906 12.1948 27.9905 12.1944L27.9903 12.1942C27.9893 12.1919 27.9854 12.1852 27.976 12.1769C27.9552 12.1586 27.927 12.1491 27.8999 12.1513C27.0726 12.2169 25.8223 12.2581 24.8656 11.9788C23.5415 11.5921 22.7277 11.1029 21.9318 10.1508C21.6 9.75379 21.3779 9.25003 21.2486 8.91258C21.2255 8.85226 21.2042 8.7942 21.1848 8.73929ZM17.3972 5L21.6891 5L21.6891 6.73929L17.3972 6.73929V5Z" fill="url(#paint0_linear_1076_74)"/>
<rect x="13.7524" y="15.835" width="11.3843" height="6.9073" rx="1" fill="url(#paint1_linear_1076_74)" stroke="url(#paint2_linear_1076_74)" stroke-width="2"/>
<path d="M16.0986 27.3052H22.7908" stroke="url(#paint3_linear_1076_74)" stroke-width="2" stroke-linecap="round"/>
<defs>
<linearGradient id="paint0_linear_1076_74" x1="10.0023" y1="29.1979" x2="29.9951" y2="29.1895" gradientUnits="userSpaceOnUse">
<stop offset="0.271875" stop-color="#3EAD3A"/>
<stop offset="1" stop-color="#017AAF"/>
</linearGradient>
<linearGradient id="paint1_linear_1076_74" x1="13.3271" y1="21.9794" x2="26.1394" y2="21.9666" gradientUnits="userSpaceOnUse">
<stop offset="0.271875" stop-color="#3EAD3A"/>
<stop offset="1" stop-color="#017AAF"/>
</linearGradient>
<linearGradient id="paint2_linear_1076_74" x1="13.3271" y1="21.9794" x2="26.1394" y2="21.9666" gradientUnits="userSpaceOnUse">
<stop offset="0.271875" stop-color="#3EAD3A"/>
<stop offset="1" stop-color="#017AAF"/>
</linearGradient>
<linearGradient id="paint3_linear_1076_74" x1="16.386" y1="28.1073" x2="22.792" y2="28.0789" gradientUnits="userSpaceOnUse">
<stop offset="0.271875" stop-color="#3EAD3A"/>
<stop offset="1" stop-color="#017AAF"/>
</linearGradient>
</defs>
</svg>
