<svg width="40" height="40" viewBox="0 0 40 40" fill="none" xmlns="http://www.w3.org/2000/svg">
<path d="M29.3064 11.1782C28.6635 11.6604 27.2812 13.107 26.8954 15.0358C26.4132 17.4467 25.4489 21.3043 23.5201 22.2686C21.5913 23.233 21.1091 23.7152 20.1447 25.1618C19.3732 26.3191 19.8233 29.823 20.1447 31.4303" stroke="url(#paint0_linear_1076_68)" stroke-linecap="round" stroke-dasharray="2 2"/>
<path d="M31.2907 11.1782C31.4689 12.026 31.8535 14.2816 30.8088 16.0001C29.503 18.1483 27.5689 21.7329 28.4423 23.9207C29.3157 26.1086 29.0754 26.7032 28.8348 28.5088C28.6422 29.9532 25.8191 32.1944 24.4317 33.1344" stroke="url(#paint1_linear_1076_68)" stroke-linecap="round" stroke-dasharray="2 2"/>
<mask id="path-3-inside-1_1076_68" fill="white">
<path fill-rule="evenodd" clip-rule="evenodd" d="M32.2895 24.2823C31.8719 22.9223 32.4678 21.1854 33.5379 20.2479C34.5997 19.3178 35.3684 18.0375 35.6471 16.5421C36.3066 13.0032 33.9724 9.59984 30.4336 8.94033C26.8948 8.28083 23.4914 10.615 22.8319 14.1538C22.7459 14.6154 22.7108 15.0747 22.7227 15.5259C22.7601 16.9497 21.8939 18.574 20.6132 19.1973C18.306 20.3202 16.5426 22.4844 16.0364 25.2005C15.1885 29.7504 18.1895 34.1262 22.7394 34.9741C27.2893 35.8221 31.6651 32.821 32.5131 28.2711C32.7696 26.8946 32.6738 25.5341 32.2895 24.2823Z"/>
</mask>
<path d="M33.6809 16.1756C33.4874 17.2142 32.9562 18.0986 32.22 18.7436L34.8558 21.7523C36.2432 20.5369 37.2494 18.8607 37.6132 16.9085L33.6809 16.1756ZM30.0672 10.9065C32.5201 11.3636 34.1381 13.7227 33.6809 16.1756L37.6132 16.9085C38.4751 12.2838 35.4247 7.83605 30.8 6.97418L30.0672 10.9065ZM24.798 14.5202C25.2552 12.0673 27.6143 10.4493 30.0672 10.9065L30.8 6.97418C26.1753 6.11231 21.7276 9.16268 20.8657 13.7874L24.798 14.5202ZM24.722 15.4732C24.7138 15.1616 24.7379 14.8428 24.798 14.5202L20.8657 13.7874C20.7538 14.3879 20.7078 14.9877 20.7233 15.5785L24.722 15.4732ZM18.0026 25.5669C18.3877 23.5004 19.7267 21.853 21.4884 20.9956L19.7379 17.399C16.8853 18.7873 14.6975 21.4684 14.0703 24.8341L18.0026 25.5669ZM23.1058 33.008C19.6418 32.3624 17.357 29.0309 18.0026 25.5669L14.0703 24.8341C13.02 30.4698 16.7372 35.89 22.373 36.9403L23.1058 33.008ZM30.5469 27.9047C29.9013 31.3687 26.5699 33.6535 23.1058 33.008L22.373 36.9403C28.0088 37.9906 33.4289 34.2733 34.4792 28.6375L30.5469 27.9047ZM30.3776 24.8694C30.6694 25.8197 30.7429 26.8533 30.5469 27.9047L34.4792 28.6375C34.7963 26.936 34.6783 25.2484 34.2014 23.6953L30.3776 24.8694ZM20.7233 15.5785C20.7431 16.3284 20.2195 17.1646 19.7379 17.399L21.4884 20.9956C23.5682 19.9834 24.7772 17.5711 24.722 15.4732L20.7233 15.5785ZM32.22 18.7436C30.6369 20.1304 29.6991 22.6597 30.3776 24.8694L34.2014 23.6953C34.0447 23.185 34.2986 22.2404 34.8558 21.7523L32.22 18.7436Z" fill="url(#paint2_linear_1076_68)" mask="url(#path-3-inside-1_1076_68)"/>
<path fill-rule="evenodd" clip-rule="evenodd" d="M10.7183 15.8537C10.8265 15.915 10.9431 15.9658 11.058 16.0136C11.5643 16.2245 12.1697 16.1235 12.5809 15.711C13.1241 15.1661 13.1227 14.284 12.5778 13.7408C12.5729 13.7359 12.5679 13.7311 12.563 13.7263C12.1139 13.2915 11.5109 12.6905 11.0747 12.2429C11.0699 12.238 11.0651 12.2331 11.0602 12.2283C10.5153 11.6851 9.63328 11.6865 9.09009 12.2314C8.66861 12.6542 8.575 13.28 8.80878 13.793C8.85813 13.9012 8.90714 14.0116 8.96233 14.117C9.10496 14.3895 9.42828 14.8383 9.62454 15.0339C9.82768 15.2364 10.4044 15.6758 10.7183 15.8537Z" fill="url(#paint3_linear_1076_68)"/>
<mask id="path-6-inside-2_1076_68" fill="white">
<path fill-rule="evenodd" clip-rule="evenodd" d="M9.59761 20.3391C9.72126 20.3877 9.84981 20.4276 9.97049 20.4831C11.355 21.12 13.1793 20.757 14.467 19.4653C16.061 17.8663 16.2292 15.4495 14.8427 14.0674C14.3971 13.6231 13.8451 13.3398 13.2482 13.213C12.5807 13.0712 11.9835 12.4758 11.8395 11.8088C11.7108 11.2123 11.4258 10.6612 10.9802 10.217C9.59369 8.83485 7.17749 9.01065 5.58348 10.6097C4.26962 11.9277 3.92442 13.8012 4.62007 15.193C4.67772 15.3083 4.71983 15.4313 4.76295 15.5528C4.99783 16.2145 5.93984 17.6249 6.50258 18.1859C7.07991 18.7614 8.87615 20.0559 9.59761 20.3391Z"/>
</mask>
<path d="M4.62007 15.193L2.83108 16.0872L4.62007 15.193ZM4.76295 15.5528L2.87816 16.2218L4.76295 15.5528ZM13.2482 13.213L13.6639 11.2567L13.2482 13.213ZM9.97049 20.4831L10.8063 18.6661L9.97049 20.4831ZM9.59761 20.3391L8.86684 22.2008L9.59761 20.3391ZM9.13468 22.3001C11.3874 23.3364 14.0915 22.6748 15.8834 20.8773L13.0505 18.0533C12.267 18.8393 11.3226 18.9036 10.8063 18.6661L9.13468 22.3001ZM15.8834 20.8773C18.0615 18.6924 18.6064 14.9953 16.2547 12.6509L13.4307 15.4838C13.852 15.9038 14.0605 17.0402 13.0505 18.0533L15.8834 20.8773ZM16.2547 12.6509C15.518 11.9166 14.6125 11.4583 13.6639 11.2567L12.8325 15.1693C13.0777 15.2214 13.2761 15.3297 13.4307 15.4838L16.2547 12.6509ZM13.7945 11.3869C13.59 10.439 13.1288 9.53491 12.3922 8.8006L9.56821 11.6335C9.72282 11.7876 9.83167 11.9856 9.88455 12.2307L13.7945 11.3869ZM12.3922 8.8006C10.0405 6.45628 6.34513 7.01275 4.16705 9.19768L6.99991 12.0217C8.00986 11.0085 9.14686 11.2134 9.56821 11.6335L12.3922 8.8006ZM4.16705 9.19768C2.34114 11.0293 1.69431 13.8128 2.83108 16.0872L6.40906 14.2989C6.15453 13.7896 6.1981 12.826 6.99991 12.0217L4.16705 9.19768ZM7.91457 16.7694C7.77468 16.63 7.4855 16.2675 7.17658 15.8017C7.03211 15.5839 6.90297 15.3729 6.80269 15.1926C6.75279 15.1028 6.71403 15.0278 6.68579 14.9689C6.65599 14.9067 6.64639 14.88 6.64775 14.8838L2.87816 16.2218C3.08272 16.7981 3.49491 17.4876 3.84306 18.0125C4.20455 18.5576 4.66774 19.1808 5.09058 19.6023L7.91457 16.7694ZM10.3284 18.4774C10.3369 18.4808 10.3047 18.4681 10.2224 18.4242C10.1457 18.3833 10.0486 18.3276 9.93265 18.2569C9.70033 18.1151 9.42774 17.9344 9.14833 17.7374C8.55592 17.3198 8.07768 16.932 7.91457 16.7694L5.09058 19.6023C5.50481 20.0152 6.21336 20.5625 6.84377 21.0068C7.44139 21.4281 8.25246 21.9597 8.86684 22.2008L10.3284 18.4774ZM2.83108 16.0872C2.82093 16.0668 2.81998 16.0617 2.8294 16.0863C2.83392 16.0981 2.83973 16.1138 2.84806 16.137C2.8575 16.1633 2.86483 16.1842 2.87816 16.2218L6.64775 14.8838C6.61936 14.8038 6.53372 14.5483 6.40906 14.2989L2.83108 16.0872ZM13.6639 11.2567C13.7148 11.2675 13.7434 11.2822 13.7527 11.2875C13.7621 11.2928 13.7627 11.2946 13.7595 11.2914C13.7564 11.2883 13.7581 11.2889 13.7635 11.2983C13.7688 11.3075 13.7836 11.3361 13.7945 11.3869L9.88455 12.2307C10.1946 13.6677 11.3945 14.8638 12.8325 15.1693L13.6639 11.2567ZM10.8063 18.6661C10.6716 18.6042 10.549 18.5584 10.474 18.5309C10.3754 18.4947 10.3626 18.4908 10.3284 18.4774L8.86684 22.2008C8.91951 22.2215 8.96788 22.2394 9.0051 22.253C9.0236 22.2597 9.04211 22.2664 9.05668 22.2717C9.07229 22.2774 9.08473 22.2819 9.09636 22.2861C9.14668 22.3046 9.14866 22.3065 9.13468 22.3001L10.8063 18.6661Z" fill="url(#paint4_linear_1076_68)" mask="url(#path-6-inside-2_1076_68)"/>
<path fill-rule="evenodd" clip-rule="evenodd" d="M17.0473 9.37787C16.9288 9.33581 16.8034 9.30565 16.679 9.28677C16.2825 9.22652 15.8686 9.39472 15.6331 9.75137C15.3099 10.2406 15.4445 10.8992 15.9337 11.2223V11.2223C16.3379 11.4893 16.8923 11.8551 17.2965 12.1221V12.1221C17.7857 12.4453 18.4443 12.3107 18.7674 11.8215C19.0092 11.4554 18.9947 10.9947 18.7673 10.6504C18.7009 10.55 18.6278 10.4513 18.5494 10.36C18.3932 10.1782 18.11 9.91886 17.9444 9.80948C17.7718 9.69546 17.3171 9.47363 17.0473 9.37787Z" fill="url(#paint5_linear_1076_68)"/>
<mask id="path-9-inside-3_1076_68" fill="white">
<path fill-rule="evenodd" clip-rule="evenodd" d="M17.2102 5.85217C17.0794 5.82466 16.9445 5.80915 16.8138 5.78119C15.6945 5.54168 14.4131 6.08983 13.6579 7.23317C12.7096 8.66884 12.95 10.4993 14.1948 11.3216C14.4999 11.5231 14.8371 11.6454 15.1862 11.694C15.862 11.7881 16.5791 12.2618 16.9309 12.8465C17.1126 13.1485 17.3574 13.4106 17.6625 13.6122C18.9073 14.4345 20.6853 13.9372 21.6336 12.5016C22.4046 11.3345 22.3899 9.90643 21.6886 8.97124C21.6109 8.86753 21.5436 8.75473 21.4735 8.64571C21.1714 8.17603 20.2913 7.30673 19.8002 6.98238C19.2954 6.64894 17.8241 5.98131 17.2102 5.85217Z"/>
</mask>
<path d="M21.6886 8.97124L20.0885 10.1711L21.6886 8.97124ZM21.4735 8.64571L19.7915 9.72777L21.4735 8.64571ZM15.1862 11.694L14.9103 13.6749L15.1862 11.694ZM16.8138 5.78119L17.2323 3.82547L16.8138 5.78119ZM17.2102 5.85217L17.6219 3.895L17.2102 5.85217ZM17.2323 3.82547C15.1992 3.3904 13.1336 4.39825 11.9891 6.13084L15.3267 8.33551C15.6927 7.78142 16.1899 7.69295 16.3953 7.73691L17.2323 3.82547ZM11.9891 6.13084C10.5848 8.25679 10.7105 11.4169 13.0925 12.9904L15.2971 9.65279C15.2194 9.60144 15.1186 9.4884 15.0869 9.24697C15.0545 9.00019 15.1089 8.66521 15.3267 8.33551L11.9891 6.13084ZM13.0925 12.9904C13.6567 13.3631 14.2785 13.5869 14.9103 13.6749L15.462 9.71314C15.3957 9.7039 15.3431 9.68315 15.2971 9.65279L13.0925 12.9904ZM15.2172 13.8776C15.5461 14.4242 15.9959 14.9082 16.5602 15.281L18.7648 11.9434C18.7188 11.913 18.6791 11.8728 18.6446 11.8154L15.2172 13.8776ZM16.5602 15.281C18.9421 16.8544 21.8981 15.7299 23.3024 13.6039L19.9648 11.3992C19.747 11.729 19.4603 11.9105 19.2206 11.9775C18.9861 12.0431 18.8426 11.9947 18.7648 11.9434L16.5602 15.281ZM23.3024 13.6039C24.4689 11.838 24.5691 9.47881 23.2887 7.77136L20.0885 10.1711C20.2107 10.334 20.3402 10.8309 19.9648 11.3992L23.3024 13.6039ZM18.6979 8.65117C18.7798 8.7053 19.0131 8.89571 19.2993 9.17952C19.4298 9.30896 19.5489 9.43576 19.6443 9.54544C19.6916 9.59989 19.7288 9.64525 19.7563 9.68057C19.7852 9.71775 19.7948 9.73285 19.7915 9.72777L23.1555 7.56365C22.8831 7.14019 22.4611 6.68173 22.1161 6.33958C21.7639 5.99022 21.3117 5.58381 20.9026 5.31359L18.6979 8.65117ZM16.7985 7.80933C16.7917 7.80792 16.8164 7.81305 16.88 7.83296C16.9397 7.85163 17.0162 7.87778 17.1084 7.91191C17.2935 7.98044 17.5116 8.06991 17.7366 8.16949C18.2238 8.38515 18.5912 8.58067 18.6979 8.65117L20.9026 5.31359C20.5045 5.05064 19.8838 4.74563 19.3557 4.51183C18.8457 4.2861 18.1546 4.00707 17.6219 3.895L16.7985 7.80933ZM23.2887 7.77136C23.2909 7.77421 23.2838 7.76497 23.2596 7.7275C23.2477 7.70891 23.235 7.68885 23.2169 7.66029C23.2005 7.63423 23.1785 7.59935 23.1555 7.56365L19.7915 9.72777C19.8114 9.75868 19.9533 9.99083 20.0885 10.1711L23.2887 7.77136ZM14.9103 13.6749C14.9026 13.6738 14.9185 13.6754 14.9548 13.6898C14.9902 13.7039 15.0331 13.7256 15.0777 13.7551C15.1223 13.7845 15.1591 13.8155 15.186 13.8425C15.2135 13.8702 15.2212 13.8843 15.2172 13.8776L18.6446 11.8154C17.9815 10.7133 16.736 9.89055 15.462 9.71314L14.9103 13.6749ZM16.3953 7.73691C16.5166 7.76286 16.6309 7.78114 16.6906 7.79086C16.7666 7.80323 16.7862 7.80675 16.7985 7.80933L17.6219 3.895C17.5034 3.87008 17.3902 3.85209 17.3333 3.84284C17.2602 3.83093 17.2417 3.82748 17.2323 3.82547L16.3953 7.73691Z" fill="url(#paint6_linear_1076_68)" mask="url(#path-9-inside-3_1076_68)"/>
<defs>
<linearGradient id="paint0_linear_1076_68" x1="20.1304" y1="27.4221" x2="29.3083" y2="27.4192" gradientUnits="userSpaceOnUse">
<stop offset="0.271875" stop-color="#3EAD3A"/>
<stop offset="1" stop-color="#017AAF"/>
</linearGradient>
<linearGradient id="paint1_linear_1076_68" x1="27.2586" y1="30.1877" x2="19.8816" y2="23.1608" gradientUnits="userSpaceOnUse">
<stop offset="0.271875" stop-color="#3EAD3A"/>
<stop offset="1" stop-color="#017AAF"/>
</linearGradient>
<linearGradient id="paint2_linear_1076_68" x1="16.227" y1="28.3242" x2="32.878" y2="31.4199" gradientUnits="userSpaceOnUse">
<stop offset="0.271875" stop-color="#3EAD3A"/>
<stop offset="1" stop-color="#017AAF"/>
</linearGradient>
<linearGradient id="paint3_linear_1076_68" x1="8.52438" y1="13.0986" x2="11.8695" y2="16.426" gradientUnits="userSpaceOnUse">
<stop offset="0.271875" stop-color="#3EAD3A"/>
<stop offset="1" stop-color="#017AAF"/>
</linearGradient>
<linearGradient id="paint4_linear_1076_68" x1="3.86523" y1="13.0962" x2="12.377" y2="21.5654" gradientUnits="userSpaceOnUse">
<stop offset="0.271875" stop-color="#3EAD3A"/>
<stop offset="1" stop-color="#017AAF"/>
</linearGradient>
<linearGradient id="paint5_linear_1076_68" x1="19.0586" y1="11.088" x2="16.0562" y2="9.10941" gradientUnits="userSpaceOnUse">
<stop offset="0.271875" stop-color="#3EAD3A"/>
<stop offset="1" stop-color="#017AAF"/>
</linearGradient>
<linearGradient id="paint6_linear_1076_68" x1="22.5405" y1="10.384" x2="14.9008" y2="5.34797" gradientUnits="userSpaceOnUse">
<stop offset="0.271875" stop-color="#3EAD3A"/>
<stop offset="1" stop-color="#017AAF"/>
</linearGradient>
</defs>
</svg>
