<svg width="40" height="40" viewBox="0 0 40 40" fill="none" xmlns="http://www.w3.org/2000/svg">
<path d="M22.1432 10.8893C20.046 7.98071 17.5983 5.49842 14.1295 6.40694C10.208 7.434 9.42212 11.8923 9.95522 15.9108C10.4794 19.8624 12.3215 23.4116 16.2742 23.927C19.7101 24.3751 22.5583 22.6638 23.9607 19.4953C25.3509 16.3542 24.1522 13.6755 22.1432 10.8893Z" stroke="url(#paint0_linear_1076_76)" stroke-width="2"/>
<path d="M14.0879 4.62629C13.8928 4.1096 13.3158 3.84888 12.7991 4.04395C12.2824 4.23902 12.0217 4.81601 12.2168 5.3327L14.0879 4.62629ZM12.2168 5.3327L19.1713 23.7531L21.0424 23.0467L14.0879 4.62629L12.2168 5.3327Z" fill="url(#paint1_linear_1076_76)"/>
<path d="M31.7657 19.1369C32.7194 15.6802 33.1213 12.2173 30.2403 10.0823C26.9834 7.66874 23.0158 9.84864 20.2172 12.7813C17.4651 15.6651 15.8523 19.3241 17.9263 22.7282C19.7291 25.6872 22.8472 26.8356 26.1955 25.9441C29.5148 25.0604 30.8521 22.4481 31.7657 19.1369Z" fill="white" stroke="url(#paint2_linear_1076_76)" stroke-width="2"/>
<path d="M31.6025 8.93431C31.8831 8.45862 31.725 7.84553 31.2493 7.56494C30.7736 7.28435 30.1605 7.44252 29.8799 7.91822L31.6025 8.93431ZM29.8799 7.91822L19.8767 24.8774L21.5994 25.8935L31.6025 8.93431L29.8799 7.91822Z" fill="url(#paint3_linear_1076_76)"/>
<path d="M18.7831 19.9217C15.3122 19.0209 11.8436 18.672 9.75287 21.5852C7.38931 24.8786 9.62952 28.8125 12.6045 31.566C15.53 34.2737 19.2132 35.8305 22.5853 33.7047C25.5164 31.8569 26.6171 28.7217 25.6746 25.3874C24.7403 22.0819 22.1079 20.7847 18.7831 19.9217Z" fill="white" stroke="url(#paint4_linear_1076_76)" stroke-width="2"/>
<path d="M8.58419 20.2409C8.10427 19.9676 7.49366 20.1351 7.22037 20.615C6.94708 21.095 7.11459 21.7056 7.59452 21.9788L8.58419 20.2409ZM7.59452 21.9788L24.7044 31.722L25.6941 29.984L8.58419 20.2409L7.59452 21.9788Z" fill="url(#paint5_linear_1076_76)"/>
<defs>
<linearGradient id="paint0_linear_1076_76" x1="7.5172" y1="13.9935" x2="20.2301" y2="24.5161" gradientUnits="userSpaceOnUse">
<stop offset="0.271875" stop-color="#3EAD3A"/>
<stop offset="1" stop-color="#017AAF"/>
</linearGradient>
<linearGradient id="paint1_linear_1076_76" x1="8.73057" y1="11.4648" x2="21.3522" y2="21.9029" gradientUnits="userSpaceOnUse">
<stop offset="0.271875" stop-color="#3EAD3A"/>
<stop offset="1" stop-color="#017AAF"/>
</linearGradient>
<linearGradient id="paint2_linear_1076_76" x1="20.1847" y1="9.67981" x2="19.945" y2="26.1809" gradientUnits="userSpaceOnUse">
<stop offset="0.271875" stop-color="#3EAD3A"/>
<stop offset="1" stop-color="#017AAF"/>
</linearGradient>
<linearGradient id="paint3_linear_1076_76" x1="22.9161" y1="9.04158" x2="22.6851" y2="25.4186" gradientUnits="userSpaceOnUse">
<stop offset="0.271875" stop-color="#3EAD3A"/>
<stop offset="1" stop-color="#017AAF"/>
</linearGradient>
<linearGradient id="paint4_linear_1076_76" x1="9.50392" y1="31.6458" x2="26.0067" y2="31.6336" gradientUnits="userSpaceOnUse">
<stop offset="0.271875" stop-color="#3EAD3A"/>
<stop offset="1" stop-color="#017AAF"/>
</linearGradient>
<linearGradient id="paint5_linear_1076_76" x1="8.82404" y1="28.9247" x2="25.2027" y2="28.9057" gradientUnits="userSpaceOnUse">
<stop offset="0.271875" stop-color="#3EAD3A"/>
<stop offset="1" stop-color="#017AAF"/>
</linearGradient>
</defs>
</svg>
