<svg width="32" height="32" viewBox="0 0 32 32" fill="none" xmlns="http://www.w3.org/2000/svg">
<path d="M16.0002 29.3334C12.9113 28.5556 10.3613 26.7834 8.35016 24.0167C6.33905 21.2501 5.3335 18.1779 5.3335 14.8001V6.66675L16.0002 2.66675L26.6668 6.66675V14.8001C26.6668 18.1779 25.6613 21.2501 23.6502 24.0167C21.6391 26.7834 19.0891 28.5556 16.0002 29.3334ZM16.0002 26.5334C18.1557 25.8667 19.9557 24.5501 21.4002 22.5834C22.8446 20.6167 23.6891 18.4223 23.9335 16.0001H16.0002V5.50008L8.00016 8.50008V15.4001C8.00016 15.5556 8.02239 15.7556 8.06683 16.0001H16.0002V26.5334Z" fill="#4C4C4C"/>
</svg>
