<svg width="252" height="278" viewBox="0 0 252 278" fill="none" xmlns="http://www.w3.org/2000/svg">
<path d="M54.5359 77.0225C56.0755 74.3558 59.9245 74.3558 61.4641 77.0225L90.909 128.022C92.4486 130.689 90.5241 134.022 87.4449 134.022H28.5551C25.4759 134.022 23.5514 130.689 25.091 128.022L54.5359 77.0225Z" fill="#C0222B"/>
<rect x="55" y="94.0225" width="6" height="22" rx="3" fill="white"/>
<circle cx="58" cy="123.022" r="3" fill="white"/>
<path d="M153.517 100.899C150.48 100.895 147.51 101.794 144.984 103.481C142.457 105.168 140.486 107.568 139.321 110.378C138.156 113.188 137.849 116.28 138.439 119.265C139.029 122.249 140.489 124.991 142.635 127.144C144.781 129.297 147.516 130.763 150.494 131.359C153.471 131.954 156.559 131.65 159.364 130.487C162.17 129.324 164.569 127.353 166.256 124.823C167.944 122.294 168.844 119.32 168.844 116.277C168.844 112.203 167.23 108.294 164.356 105.411C161.482 102.528 157.584 100.905 153.517 100.899ZM149.716 117.135C148.786 117.135 147.876 116.859 147.103 116.34C146.33 115.822 145.728 115.086 145.373 114.224C145.018 113.363 144.926 112.415 145.109 111.502C145.292 110.588 145.742 109.749 146.401 109.092C147.06 108.434 147.899 107.987 148.812 107.808C149.725 107.629 150.67 107.725 151.528 108.085C152.387 108.444 153.119 109.051 153.633 109.828C154.147 110.605 154.419 111.517 154.414 112.449C154.414 113.066 154.293 113.677 154.056 114.247C153.82 114.817 153.474 115.335 153.037 115.77C152.6 116.206 152.082 116.55 151.512 116.785C150.942 117.019 150.332 117.138 149.716 117.135Z" fill="url(#paint0_linear_1101_19)"/>
<path d="M185.216 206.433C178.617 215.074 175.861 228.715 183.42 237.649C189.414 244.7 200.127 245.014 208.041 241.394C209.972 240.516 211.716 239.273 213.178 237.733C214.097 236.729 215.037 235.641 215.893 234.616C216.562 233.845 217.112 232.977 217.522 232.042C217.662 231.737 217.78 231.422 217.877 231.101C218.294 229.552 217.334 231.896 217 232.189L215.037 233.318C214.419 233.505 213.763 233.527 213.133 233.384C212.504 233.241 211.922 232.938 211.445 232.502L211.758 232.858C211.361 232.314 211.32 232.251 211.612 232.67L212.009 233.256C212.552 234.093 213.053 234.992 213.512 235.871C214.605 237.904 215.473 240.051 216.102 242.273C217.668 247.755 226.23 245.433 224.643 239.909C223.768 236.964 222.607 234.111 221.176 231.393C220.198 229.051 218.647 226.993 216.665 225.41C216.007 224.972 215.251 224.703 214.465 224.626C213.678 224.55 212.885 224.668 212.155 224.97C211.425 225.316 210.792 225.837 210.311 226.486C209.83 227.136 209.517 227.894 209.398 228.694L209.002 229.113L207.247 231.205C206.992 231.506 206.72 231.793 206.433 232.063L205.953 232.481C206.663 232.084 205.598 232.816 205.953 232.481C205.243 232.879 205.117 233.046 204.658 233.277C204.199 233.507 203.301 233.946 203.781 233.737C203.44 233.835 203.105 233.954 202.779 234.093C202.244 234.275 201.7 234.429 201.15 234.553L200.231 234.741C200.085 234.741 199.291 234.908 199.876 234.741C199.493 234.72 199.11 234.72 198.727 234.741C198.226 234.741 197.704 234.741 197.182 234.741C196.66 234.741 195.261 234.574 196.242 234.741C195.169 234.563 194.114 234.29 193.089 233.925C193.695 234.239 192.463 233.716 193.089 233.925L192.4 233.59L191.753 233.193C191.627 233.193 190.708 232.461 191.084 232.753C191.46 233.046 190.876 232.565 190.792 232.481L190.207 231.958L189.664 231.373C189.998 231.875 189.226 230.829 189.664 231.373C189.004 230.478 188.529 229.461 188.265 228.381C187.566 225.734 187.566 222.951 188.265 220.305C189.121 216.919 190.695 213.757 192.88 211.036C193.461 210.012 193.618 208.801 193.317 207.663C193.017 206.524 192.282 205.549 191.272 204.947C190.253 204.381 189.054 204.23 187.926 204.526C186.798 204.822 185.828 205.543 185.216 206.538V206.433Z" fill="url(#paint1_linear_1101_19)"/>
<path d="M136.059 204.027C130.671 205.122 125.575 207.346 121.107 210.555C117.194 213.287 113.941 216.862 111.584 221.016C108.953 225.849 106.468 231.226 106.907 236.875C106.977 237.845 107.11 238.809 107.303 239.762C107.353 240.101 107.423 240.436 107.512 240.767L107.658 241.373C107.763 239.553 108.515 238.528 109.893 238.319L110.624 238.13H110.29C111 238.34 110.477 237.963 110.29 238.13C109.58 237.921 109.287 237.837 108.974 237.712C106.132 236.446 103.412 234.919 100.851 233.151C96.0267 230.075 91.5788 237.775 96.3817 240.829C98.816 242.442 101.355 243.889 103.983 245.16C106.255 246.474 108.861 247.092 111.48 246.939C112.246 246.827 112.982 246.563 113.644 246.161C114.306 245.76 114.881 245.229 115.334 244.601C115.788 243.973 116.111 243.26 116.285 242.504C116.459 241.748 116.479 240.965 116.345 240.202C115.741 237.612 115.698 234.922 116.22 232.314C117.485 227.801 119.862 223.678 123.132 220.325C124.454 219.007 125.942 217.867 127.559 216.936C128.374 216.434 129.209 215.973 130.065 215.534L131.172 214.99C131.464 214.844 132.717 214.3 131.903 214.634C134.013 213.717 136.209 213.016 138.46 212.542C139.535 212.177 140.43 211.414 140.962 210.409C141.494 209.404 141.622 208.234 141.32 207.137C141.019 206.041 140.31 205.102 139.34 204.512C138.369 203.922 137.21 203.726 136.1 203.964L136.059 204.027Z" fill="url(#paint2_linear_1101_19)"/>
<path d="M113.067 154.901C109.029 156.262 104.694 156.487 100.537 155.549C95.2434 154.358 90.3627 151.772 86.4 148.059C83.3107 145.224 80.6764 141.928 78.5899 138.288C77.7964 136.907 77.0446 135.505 76.3764 134.104C76.1467 133.622 75.9379 133.12 75.7082 132.639C76.084 133.434 76.0423 133.434 75.7082 132.744C75.368 131.625 74.6141 130.68 73.6009 130.1C72.5877 129.521 71.3918 129.351 70.2578 129.626C69.1471 129.962 68.2101 130.717 67.645 131.732C67.08 132.747 66.9311 133.943 67.2298 135.066C74.5179 153.896 94.3771 170.153 115.427 163.458C120.856 161.742 118.538 153.164 113.067 154.901Z" fill="url(#paint3_linear_1101_19)"/>
<path d="M193.674 139.795C193.932 139.818 194.186 139.881 194.425 139.983L234.875 156.721C234.875 155.403 235 154.085 235 152.746C235.035 137.436 230.086 122.532 220.904 110.294L194.739 69.2019L174.838 37.9645C173.678 36.1108 172.06 34.5881 170.142 33.5435C168.223 32.499 166.068 31.9679 163.884 32.0015C161.701 32.0352 159.563 32.6324 157.678 33.7357C155.792 34.8389 154.222 36.4107 153.12 38.2993L134.325 70.2689L108.013 115.294C107.324 116.424 106.635 117.575 105.925 118.746L105.027 120.274C99.8506 130.303 97.1576 141.433 97.1754 152.725C97.1754 191.41 127.998 222.752 166.088 222.752C182.656 222.673 198.645 216.638 211.146 205.745C223.648 194.851 231.831 179.823 234.207 163.395L192.149 146.029C191.446 145.847 190.7 145.929 190.053 146.261C189.407 146.592 188.904 147.15 188.641 147.829C188.333 148.539 188.301 149.338 188.553 150.07C188.804 150.802 189.32 151.413 189.998 151.783L214.243 161.742C216.406 162.703 218.133 164.438 219.087 166.607C220.04 168.776 220.152 171.224 219.4 173.471C218.648 175.718 217.086 177.604 215.02 178.759C212.954 179.913 210.532 180.254 208.229 179.715C207.985 179.684 207.746 179.621 207.519 179.526L171.81 164.776C171.739 164.746 171.662 164.731 171.585 164.732C171.508 164.732 171.432 164.749 171.361 164.78C171.291 164.812 171.228 164.857 171.175 164.914C171.123 164.971 171.083 165.038 171.058 165.111L169.575 168.709C169.427 169.071 169.209 169.399 168.935 169.676C168.66 169.953 168.333 170.173 167.973 170.324C167.614 170.475 167.228 170.553 166.838 170.554C166.448 170.555 166.062 170.479 165.701 170.331C165.341 170.183 165.013 169.965 164.736 169.689C164.46 169.414 164.24 169.087 164.09 168.726C163.94 168.366 163.862 167.979 163.861 167.589C163.859 167.198 163.935 166.811 164.083 166.45L165.566 162.83C165.622 162.686 165.621 162.525 165.563 162.381C165.505 162.237 165.394 162.12 165.252 162.056L162.162 160.78C161.817 160.634 161.504 160.421 161.242 160.153C160.979 159.886 160.772 159.569 160.632 159.221C160.493 158.873 160.423 158.5 160.427 158.125C160.432 157.75 160.51 157.379 160.658 157.035L160.909 156.428C161.192 155.724 161.742 155.159 162.437 154.858C163.133 154.556 163.919 154.542 164.626 154.817L167.717 156.093C167.788 156.123 167.864 156.138 167.941 156.138C168.018 156.137 168.094 156.12 168.165 156.089C168.235 156.058 168.299 156.012 168.351 155.955C168.403 155.898 168.443 155.831 168.468 155.758L169.805 152.515C170.104 151.786 170.68 151.205 171.407 150.901C172.133 150.597 172.95 150.594 173.679 150.894C174.407 151.194 174.987 151.771 175.29 152.499C175.594 153.227 175.596 154.045 175.297 154.775L173.96 158.039C173.904 158.184 173.905 158.345 173.963 158.489C174.021 158.633 174.132 158.749 174.274 158.813L209.774 173.459C210.47 173.579 211.187 173.458 211.806 173.116C212.424 172.773 212.908 172.23 213.178 171.576C213.449 170.975 213.516 170.302 213.369 169.66C213.222 169.017 212.869 168.441 212.363 168.019H212.238L187.409 157.683C187.166 157.576 186.934 157.443 186.72 157.286C184.68 156.181 183.115 154.365 182.324 152.181C181.533 149.997 181.57 147.598 182.428 145.44C183.286 143.281 184.906 141.514 186.979 140.473C189.052 139.433 191.434 139.191 193.674 139.795ZM153.725 137.702C149.429 137.702 145.229 136.426 141.657 134.034C138.085 131.642 135.302 128.242 133.659 124.265C132.015 120.288 131.587 115.912 132.426 111.69C133.266 107.469 135.336 103.591 138.376 100.549C141.415 97.5069 145.287 95.4362 149.501 94.5989C153.715 93.7617 158.083 94.1956 162.051 95.8457C166.019 97.4959 169.409 100.288 171.793 103.869C174.177 107.45 175.447 111.659 175.443 115.964C175.449 118.825 174.891 121.659 173.802 124.304C172.713 126.948 171.114 129.352 169.097 131.377C167.08 133.402 164.684 135.009 162.046 136.105C159.408 137.201 156.581 137.765 153.725 137.765V137.702Z" fill="url(#paint4_linear_1101_19)"/>
<defs>
<linearGradient id="paint0_linear_1101_19" x1="148.004" y1="103.55" x2="150.158" y2="127.382" gradientUnits="userSpaceOnUse">
<stop offset="0.42895" stop-color="#3EAD3A"/>
<stop offset="1" stop-color="#017AAF"/>
</linearGradient>
<linearGradient id="paint1_linear_1101_19" x1="193.634" y1="207.913" x2="196.198" y2="239.753" gradientUnits="userSpaceOnUse">
<stop offset="0.42895" stop-color="#3EAD3A"/>
<stop offset="1" stop-color="#017AAF"/>
</linearGradient>
<linearGradient id="paint2_linear_1101_19" x1="109.461" y1="207.579" x2="112.218" y2="241.019" gradientUnits="userSpaceOnUse">
<stop offset="0.42895" stop-color="#3EAD3A"/>
<stop offset="1" stop-color="#017AAF"/>
</linearGradient>
<linearGradient id="paint3_linear_1101_19" x1="83.5962" y1="132.556" x2="85.3159" y2="160.179" gradientUnits="userSpaceOnUse">
<stop offset="0.42895" stop-color="#3EAD3A"/>
<stop offset="1" stop-color="#017AAF"/>
</linearGradient>
<linearGradient id="paint4_linear_1101_19" x1="141.432" y1="48.4368" x2="159.753" y2="195.168" gradientUnits="userSpaceOnUse">
<stop offset="0.42895" stop-color="#3EAD3A"/>
<stop offset="1" stop-color="#017AAF"/>
</linearGradient>
</defs>
</svg>
