<svg width="44" height="44" viewBox="0 0 44 44" fill="none" xmlns="http://www.w3.org/2000/svg">
<path fill-rule="evenodd" clip-rule="evenodd" d="M11.6064 11.6067C10.1419 13.0712 10.1419 15.4456 11.6064 16.91L16.9102 22.2138L11.6071 27.5169C10.1426 28.9814 10.1426 31.3557 11.6071 32.8202C13.0715 34.2847 15.4459 34.2847 16.9104 32.8202L22.2135 27.5171L27.5163 32.8199C28.9808 34.2844 31.3551 34.2844 32.8196 32.8199C34.2841 31.3555 34.2841 28.9811 32.8196 27.5166L27.5168 22.2138L32.8203 16.9103C34.2847 15.4458 34.2847 13.0715 32.8203 11.607C31.3558 10.1425 28.9814 10.1425 27.517 11.607L22.2135 16.9105L16.9097 11.6067C15.4452 10.1423 13.0709 10.1423 11.6064 11.6067Z" fill="black"/>
</svg>
